# xmcd
#
# Track frame offsets: 
#        150
#        15287
#        32024
#        48466
#        62807
#        77177
#        94468
#        109958
#        125137
#        139633
#        152750
#        171380
#        188057
#
# Disc length: 2751 seconds
#
# Revision: 2
# Processed by: cddbd v1.5.2PL0 Copyright (c) Steve Scherf et al.
# Submitted via: ExactAudioCopy v0.99pb4
#
DISCID=b20abd0d
DTITLE=Michael Holm - Mal die Welt
DYEAR=2007
DGENRE=Schlager
TTITLE0=Mal die Welt
TTITLE1=Ein Stück weit
TTITLE2=Deine Frau
TTITLE3=Frühstück
TTITLE4=Herz aus Gold
TTITLE5=Wozu
TTITLE6=Mir fehlt dieses Wort
TTITLE7=Wir haben die Zigaretten geteilt
TTITLE8=Ich freu mich
TTITLE9=Gefährlich schön
TTITLE10=16 Jahre
TTITLE11=Lass uns fliegen
TTITLE12=Trees For The World
EXTD=
EXTT0=
EXTT1=
EXTT2=
EXTT3=
EXTT4=
EXTT5=
EXTT6=
EXTT7=
EXTT8=
EXTT9=
EXTT10=
EXTT11=
EXTT12=
PLAYORDER=
